<svg version="1.1" id="Layer_1" xmlns="http://www.w3.org/2000/svg" xmlns:xlink="http://www.w3.org/1999/xlink" x="0px" y="0px"
	 width="100%" viewBox="0 0 1080 1080" enable-background="new 0 0 1080 1080" xml:space="preserve">
<path fill="#FFFFFF" opacity="1.000000" stroke="none" 
	d="
M1.000006,537.000000 
	C1.000000,358.350372 1.000000,179.700760 1.000000,1.025574 
	C360.948608,1.025574 720.897217,1.025574 1080.922852,1.025574 
	C1080.922852,360.914215 1080.922852,720.828430 1080.922852,1080.871338 
	C721.120178,1080.871338 361.240234,1080.871338 1.000000,1080.871338 
	C1.000000,903.304138 1.000000,725.607971 1.344585,547.681824 
	C2.792390,554.672424 3.474206,561.987366 5.065863,569.098694 
	C17.193295,623.282349 64.765114,665.078857 120.075607,668.638245 
	C165.194473,671.541809 202.956772,655.371643 231.931519,620.260559 
	C243.246979,606.548645 251.255203,590.938293 255.824142,573.152100 
	C250.482498,573.773193 245.580627,574.528076 240.649918,574.886475 
	C208.652191,577.212524 178.035965,571.444763 148.596924,558.946655 
	C131.924622,551.868530 115.580612,543.854065 98.517838,537.896423 
	C72.132553,528.683716 44.919079,526.687622 17.408844,533.007751 
	C11.923048,534.268066 6.468807,535.665771 1.000006,537.000000 
M101.609261,511.871704 
	C109.784424,514.670837 118.124596,517.069458 126.099113,520.355469 
	C141.004639,526.497559 155.410889,533.947754 170.542160,539.424438 
	C198.044128,549.378601 226.399811,552.893738 255.420609,546.869995 
	C257.095551,546.522339 259.821503,545.154236 259.886383,544.124268 
	C260.296936,537.605896 260.094757,531.048889 260.094757,524.336487 
	C215.408783,531.841980 178.594269,523.417236 146.627731,509.898193 
	C130.712204,503.167328 115.087303,495.600342 98.804596,489.920410 
	C72.235161,480.652039 44.866886,478.731537 17.182766,484.883240 
	C15.785655,485.193695 13.673853,485.636261 13.282024,486.588226 
	C10.359521,493.688690 7.787234,500.933319 4.604012,509.477905 
	C21.909346,505.010864 37.712555,503.305847 53.710758,503.926788 
	C69.723190,504.548340 85.490318,506.844391 101.609261,511.871704 
M153.080414,464.547089 
	C143.544693,460.206909 134.017456,455.848022 124.471519,451.530457 
	C103.885178,442.219330 82.687897,435.115662 59.901463,433.846863 
	C58.622917,433.775665 57.003120,433.585175 56.086910,434.227356 
	C47.534668,440.221863 39.666500,446.978302 32.736668,455.888855 
	C35.499786,455.888855 37.430405,455.974243 39.351658,455.876221 
	C74.114006,454.101959 106.827614,462.309265 137.760803,477.406586 
	C163.885345,490.156982 190.590408,500.368011 219.954544,501.306183 
	C230.972412,501.658173 242.040009,500.453033 254.101807,499.912231 
	C252.456711,495.419342 251.474106,492.471039 250.307663,489.597351 
	C245.922623,478.794098 245.890869,478.580841 234.798218,479.045197 
	C206.738174,480.219788 179.860672,474.901123 153.080414,464.547089 
M300.848846,588.300110 
	C292.545044,593.185730 286.334381,599.882446 282.944824,609.013855 
	C275.994141,627.738708 282.348877,647.670715 298.625824,658.212158 
	C316.697754,669.916260 343.963470,668.262085 358.177246,654.430725 
	C353.816162,648.836426 349.433167,643.220581 345.060852,637.596375 
	C344.553314,636.943481 344.105225,636.244446 344.085724,636.216675 
	C338.615387,638.184265 333.961212,640.482056 329.042267,641.498108 
	C318.709625,643.632263 308.376648,635.948608 307.277771,625.911926 
	C306.188263,615.960693 313.809052,607.054932 324.697296,607.163574 
	C331.015320,607.226562 337.310120,609.622681 344.467926,611.150879 
	C348.491180,606.197021 353.373474,600.185364 358.232758,594.202087 
	C343.182037,580.539001 320.943695,578.226624 300.848846,588.300110 
M455.277740,485.499908 
	C455.277740,499.920532 455.277740,514.341125 455.277740,528.751587 
	C463.860046,528.751587 471.786835,528.751587 480.303955,528.751587 
	C480.303955,522.677795 480.303955,516.842957 480.303955,509.667267 
	C485.461304,515.841003 489.675385,520.937195 493.959595,525.973633 
	C494.895264,527.073547 496.060272,528.786987 497.155640,528.815063 
	C506.159210,529.045959 515.171326,528.945374 524.961914,528.945374 
	C516.203247,518.488708 508.132874,508.853851 500.006195,499.151733 
	C507.747437,489.079193 515.191223,479.393646 523.184387,468.993347 
	C514.952576,468.993347 507.680054,469.164978 500.422089,468.914185 
	C497.237793,468.804138 495.214844,469.745605 493.389069,472.372803 
	C489.463776,478.021057 485.206451,483.438568 481.085052,488.950531 
	C480.714813,488.829742 480.344604,488.708954 479.974365,488.588165 
	C479.974365,474.776764 479.974365,460.965332 479.974365,447.313843 
	C471.430603,447.313843 463.523804,447.313843 455.712982,447.313843 
	C455.517426,447.935669 455.338043,448.240967 455.337280,448.546692 
	C455.307312,460.531067 455.293610,472.515472 455.277740,485.499908 
M443.221069,493.380280 
	C440.699402,490.546051 438.659698,486.897766 435.550018,485.056824 
	C430.050507,481.801208 423.888733,479.670044 418.028137,477.015259 
	C416.112732,476.147644 414.271912,475.115356 411.220154,473.557709 
	C419.674713,468.952637 425.141174,473.293335 430.911621,476.228943 
	C435.099670,471.064880 439.151123,466.069275 443.493408,460.715057 
	C441.444641,458.536469 439.846649,456.380554 437.821228,454.758301 
	C425.656342,445.014801 405.541412,445.809784 394.087341,456.360840 
	C384.176331,465.490509 383.755615,480.215454 393.582184,489.592041 
	C396.748810,492.613678 400.875732,494.729156 404.791504,496.834839 
	C408.131561,498.630890 411.911102,499.604858 415.271271,501.370605 
	C416.817291,502.183044 417.825256,504.019348 419.077179,505.391418 
	C417.318695,506.015198 415.329926,507.505493 413.842255,507.110168 
	C407.946320,505.543427 402.207062,503.386871 395.868469,501.267944 
	C393.645233,504.080750 390.647736,507.856171 387.668854,511.646240 
	C383.644104,516.767029 383.849274,518.189758 389.168915,522.344055 
	C401.023590,531.601746 421.043945,532.625183 433.874664,524.629395 
	C445.180847,517.583679 448.720734,506.460144 443.221069,493.380280 
M410.753021,664.418152 
	C425.077820,659.862854 433.833130,649.104370 434.234344,635.564453 
	C434.659241,621.225037 427.142365,609.771606 413.695648,604.583801 
	C405.063477,601.253540 396.226013,600.936157 387.362701,603.643127 
	C372.512329,608.178467 363.792175,619.714172 363.903961,634.520142 
	C364.011017,648.698486 373.163605,660.982117 387.906433,664.333740 
	C394.941223,665.932983 402.618164,664.707581 410.753021,664.418152 
M583.153809,610.416870 
	C579.259705,607.817566 575.691406,604.159912 571.403442,602.839661 
	C562.524475,600.105835 554.111023,602.906677 547.285706,607.369751 
	C545.624878,605.989624 544.461365,604.186096 543.224670,604.134399 
	C536.465454,603.851868 529.688293,603.999756 522.802612,603.999756 
	C522.802612,624.252747 522.802612,643.996277 522.802612,663.750610 
	C531.007141,663.750610 538.938293,663.750610 547.221008,663.750610 
	C547.221008,654.213501 547.186523,644.925842 547.246765,635.638794 
	C547.260742,633.491028 547.348389,631.286133 547.839600,629.211121 
	C548.870422,624.856567 551.976746,622.810791 556.296692,623.104919 
	C560.626343,623.399780 562.790588,626.245789 562.987305,630.409546 
	C563.199219,634.895325 563.125916,639.395508 563.139099,643.889465 
	C563.158447,650.489380 563.144043,657.089417 563.144043,663.601196 
	C571.798096,663.601196 579.839294,663.601196 587.969360,663.601196 
	C587.969360,651.380127 588.426514,639.535706 587.770691,627.753235 
	C587.456848,622.115479 585.033752,616.595093 583.153809,610.416870 
M492.546326,664.003601 
	C498.022339,664.003601 503.498383,664.003601 508.790894,664.003601 
	C508.790894,649.557861 509.463318,635.401367 508.553833,621.347168 
	C507.950165,612.018860 502.910583,604.622559 492.748962,602.544128 
	C483.862366,600.726318 475.679138,602.735229 468.442993,607.680115 
	C467.317657,606.323364 466.401398,604.214233 465.400604,604.173401 
	C458.328064,603.884277 451.238190,604.019653 444.256592,604.019653 
	C444.256592,624.357666 444.256592,643.958191 444.256592,663.645142 
	C452.533997,663.645142 460.571167,663.645142 468.921875,663.645142 
	C468.921875,652.645752 468.782745,642.000488 468.981964,631.361633 
	C469.078156,626.223999 472.473846,623.065979 477.098450,623.037109 
	C481.429810,623.010071 483.926636,625.506775 484.575500,630.711060 
	C484.800964,632.519226 484.767456,634.365601 484.770966,636.194580 
	C484.788483,645.312561 484.778931,654.430542 484.778931,664.003601 
	C487.303955,664.003601 489.431580,664.003601 492.546326,664.003601 
M636.980896,602.185059 
	C634.486633,602.122620 631.988953,601.943604 629.498657,602.015991 
	C607.618713,602.652100 592.706970,623.083679 599.041748,643.700073 
	C603.790039,659.153320 621.188171,668.841797 638.106689,665.605652 
	C647.206848,663.864990 654.873962,660.064270 660.105164,652.178406 
	C659.620300,651.657898 659.533020,651.482971 659.398499,651.431519 
	C654.759644,649.658508 650.080505,647.984863 645.486755,646.102478 
	C642.536377,644.893494 640.190247,644.839111 637.230957,646.810303 
	C631.757751,650.456177 625.452393,647.951355 623.369263,641.690796 
	C635.101379,641.690796 646.744446,641.595398 658.383850,641.755554 
	C661.428650,641.797485 662.689697,640.981750 663.305603,637.810303 
	C666.588928,620.904053 656.327820,606.473816 636.980896,602.185059 
M744.003906,597.145813 
	C743.214233,604.303772 742.427917,605.012329 732.578979,607.455872 
	C732.578979,613.052002 732.578979,618.636902 732.578979,624.446716 
	C735.440491,624.621094 738.023132,624.778564 741.015564,624.960938 
	C741.015564,626.509155 741.015442,627.805359 741.015686,629.101562 
	C741.016357,633.594727 741.008606,638.087830 741.019470,642.580994 
	C741.065002,661.464050 760.683960,671.913940 777.575806,662.340210 
	C777.575806,657.138062 777.575806,652.090271 777.575806,646.835022 
	C775.842651,647.167847 774.543518,647.646362 773.254333,647.621033 
	C769.657532,647.550537 766.323730,646.447205 766.070374,642.302551 
	C765.719177,636.555908 765.982178,630.771851 765.982178,624.635254 
	C770.227600,624.635254 773.994080,624.635254 777.891479,624.635254 
	C777.891479,617.559692 777.891479,610.873108 777.891479,603.837891 
	C773.770569,603.837891 769.995972,603.837891 765.745483,603.837891 
	C765.745483,599.433167 765.745483,595.363464 765.745483,591.381226 
	C758.205750,591.381226 751.165283,591.381226 744.011169,591.381226 
	C744.011169,593.265137 744.011169,594.760742 744.003906,597.145813 
M674.990601,650.432861 
	C687.026489,667.686951 712.190613,671.470520 728.380920,658.202332 
	C724.836304,653.307556 721.283386,648.401428 717.810547,643.605774 
	C708.959167,647.939575 702.597839,647.492065 698.481323,642.615051 
	C695.104736,638.614685 694.512207,631.020386 697.685547,626.723450 
	C699.093079,624.817383 701.316162,622.413391 703.319092,622.265320 
	C708.193420,621.904907 713.155579,622.731750 718.952881,623.141968 
	C721.362244,619.225037 724.455566,614.196167 727.519043,609.215759 
	C713.946838,599.073425 693.872864,599.677429 681.295349,610.249390 
	C670.121460,619.641357 667.440125,635.527161 674.990601,650.432861 
M203.759079,432.763672 
	C171.810196,411.491760 137.189667,405.468475 99.927864,414.385010 
	C103.744926,416.130737 107.771111,417.160370 111.564964,418.745941 
	C127.499870,425.405518 143.335205,432.303131 159.263519,438.978729 
	C180.697510,447.961761 202.926407,453.275421 226.250671,453.308167 
	C226.558151,452.884216 226.865631,452.460236 227.173111,452.036285 
	C219.569366,445.741913 211.965607,439.447571 203.759079,432.763672 
M611.899719,460.507416 
	C611.899719,483.227783 611.899719,505.948151 611.899719,528.790894 
	C620.390259,528.790894 628.302307,528.790894 636.469055,528.790894 
	C636.469055,501.550293 636.469055,474.526825 636.469055,447.298615 
	C628.235107,447.298615 620.203186,447.298615 611.899658,447.298615 
	C611.899658,451.572266 611.899658,455.541290 611.899719,460.507416 
M573.899719,484.500000 
	C573.899719,499.233002 573.899719,513.966003 573.899719,528.775024 
	C582.419495,528.775024 590.330017,528.775024 598.481567,528.775024 
	C598.481567,501.518280 598.481567,474.494781 598.481567,447.310913 
	C590.211060,447.310913 582.176880,447.310913 573.899658,447.310913 
	C573.899658,459.585907 573.899658,471.542938 573.899719,484.500000 
M559.725159,487.500854 
	C559.725159,481.407837 559.725159,475.314819 559.725159,469.237854 
	C551.145630,469.237854 543.226196,469.237854 535.124939,469.237854 
	C535.124939,489.173584 535.124939,508.862732 535.124939,528.666260 
	C543.374634,528.666260 551.395203,528.666260 559.725037,528.666260 
	C559.725037,515.051208 559.725037,501.775909 559.725159,487.500854 
M544.072327,464.892914 
	C545.893250,464.918915 547.732483,465.124146 549.531982,464.940552 
	C558.341919,464.041595 563.527222,455.794922 559.857727,448.638367 
	C557.324341,443.697296 550.368164,440.865295 543.906677,442.144287 
	C538.040222,443.305481 533.959534,447.459747 533.557678,452.680023 
	C533.125061,458.298645 536.212524,462.125549 544.072327,464.892914 
z"/>
<path fill="#7F59F1" opacity="1.000000" stroke="none" 
	d="
M1.000006,537.454102 
	C6.468807,535.665771 11.923048,534.268066 17.408844,533.007751 
	C44.919079,526.687622 72.132553,528.683716 98.517838,537.896423 
	C115.580612,543.854065 131.924622,551.868530 148.596924,558.946655 
	C178.035965,571.444763 208.652191,577.212524 240.649918,574.886475 
	C245.580627,574.528076 250.482498,573.773193 255.824142,573.152100 
	C251.255203,590.938293 243.246979,606.548645 231.931519,620.260559 
	C202.956772,655.371643 165.194473,671.541809 120.075607,668.638245 
	C64.765114,665.078857 17.193295,623.282349 5.065863,569.098694 
	C3.474206,561.987366 2.792390,554.672424 1.344585,547.225891 
	C1.000000,543.969421 1.000000,540.938782 1.000006,537.454102 
z"/>
<path fill="#815AF1" opacity="1.000000" stroke="none" 
	d="
M101.219795,511.762878 
	C85.490318,506.844391 69.723190,504.548340 53.710758,503.926788 
	C37.712555,503.305847 21.909346,505.010864 4.604012,509.477905 
	C7.787234,500.933319 10.359521,493.688690 13.282024,486.588226 
	C13.673853,485.636261 15.785655,485.193695 17.182766,484.883240 
	C44.866886,478.731537 72.235161,480.652039 98.804596,489.920410 
	C115.087303,495.600342 130.712204,503.167328 146.627731,509.898193 
	C178.594269,523.417236 215.408783,531.841980 260.094757,524.336487 
	C260.094757,531.048889 260.296936,537.605896 259.886383,544.124268 
	C259.821503,545.154236 257.095551,546.522339 255.420609,546.869995 
	C226.399811,552.893738 198.044128,549.378601 170.542160,539.424438 
	C155.410889,533.947754 141.004639,526.497559 126.099113,520.355469 
	C118.124596,517.069458 109.784424,514.670837 101.219795,511.762878 
z"/>
<path fill="#815AF1" opacity="1.000000" stroke="none" 
	d="
M153.436523,464.694824 
	C179.860672,474.901123 206.738174,480.219788 234.798218,479.045197 
	C245.890869,478.580841 245.922623,478.794098 250.307663,489.597351 
	C251.474106,492.471039 252.456711,495.419342 254.101807,499.912231 
	C242.040009,500.453033 230.972412,501.658173 219.954544,501.306183 
	C190.590408,500.368011 163.885345,490.156982 137.760803,477.406586 
	C106.827614,462.309265 74.114006,454.101959 39.351658,455.876221 
	C37.430405,455.974243 35.499786,455.888855 32.736668,455.888855 
	C39.666500,446.978302 47.534668,440.221863 56.086910,434.227356 
	C57.003120,433.585175 58.622917,433.775665 59.901463,433.846863 
	C82.687897,435.115662 103.885178,442.219330 124.471519,451.530457 
	C134.017456,455.848022 143.544693,460.206909 153.436523,464.694824 
z"/>
<path fill="#312651" opacity="1.000000" stroke="none" 
	d="
M301.182404,588.141907 
	C320.943695,578.226624 343.182037,580.539001 358.232758,594.202087 
	C353.373474,600.185364 348.491180,606.197021 344.467926,611.150879 
	C337.310120,609.622681 331.015320,607.226562 324.697296,607.163574 
	C313.809052,607.054932 306.188263,615.960693 307.277771,625.911926 
	C308.376648,635.948608 318.709625,643.632263 329.042267,641.498108 
	C333.961212,640.482056 338.615387,638.184265 344.085724,636.216675 
	C344.105225,636.244446 344.553314,636.943481 345.060852,637.596375 
	C349.433167,643.220581 353.816162,648.836426 358.177246,654.430725 
	C343.963470,668.262085 316.697754,669.916260 298.625824,658.212158 
	C282.348877,647.670715 275.994141,627.738708 282.944824,609.013855 
	C286.334381,599.882446 292.545044,593.185730 301.182404,588.141907 
z"/>
<path fill="#322752" opacity="1.000000" stroke="none" 
	d="
M455.277771,484.999878 
	C455.293610,472.515472 455.307312,460.531067 455.337280,448.546692 
	C455.338043,448.240967 455.517426,447.935669 455.712982,447.313843 
	C463.523804,447.313843 471.430603,447.313843 479.974365,447.313843 
	C479.974365,460.965332 479.974365,474.776764 479.974365,488.588165 
	C480.344604,488.708954 480.714813,488.829742 481.085052,488.950531 
	C485.206451,483.438568 489.463776,478.021057 493.389069,472.372803 
	C495.214844,469.745605 497.237793,468.804138 500.422089,468.914185 
	C507.680054,469.164978 514.952576,468.993347 523.184387,468.993347 
	C515.191223,479.393646 507.747437,489.079193 500.006195,499.151733 
	C508.132874,508.853851 516.203247,518.488708 524.961914,528.945374 
	C515.171326,528.945374 506.159210,529.045959 497.155640,528.815063 
	C496.060272,528.786987 494.895264,527.073547 493.959595,525.973633 
	C489.675385,520.937195 485.461304,515.841003 480.303955,509.667267 
	C480.303955,516.842957 480.303955,522.677795 480.303955,528.751587 
	C471.786835,528.751587 463.860046,528.751587 455.277740,528.751587 
	C455.277740,514.341125 455.277740,499.920532 455.277771,484.999878 
z"/>
<path fill="#312751" opacity="1.000000" stroke="none" 
	d="
M443.416748,493.705109 
	C448.720734,506.460144 445.180847,517.583679 433.874664,524.629395 
	C421.043945,532.625183 401.023590,531.601746 389.168915,522.344055 
	C383.849274,518.189758 383.644104,516.767029 387.668854,511.646240 
	C390.647736,507.856171 393.645233,504.080750 395.868469,501.267944 
	C402.207062,503.386871 407.946320,505.543427 413.842255,507.110168 
	C415.329926,507.505493 417.318695,506.015198 419.077179,505.391418 
	C417.825256,504.019348 416.817291,502.183044 415.271271,501.370605 
	C411.911102,499.604858 408.131561,498.630890 404.791504,496.834839 
	C400.875732,494.729156 396.748810,492.613678 393.582184,489.592041 
	C383.755615,480.215454 384.176331,465.490509 394.087341,456.360840 
	C405.541412,445.809784 425.656342,445.014801 437.821228,454.758301 
	C439.846649,456.380554 441.444641,458.536469 443.493408,460.715057 
	C439.151123,466.069275 435.099670,471.064880 430.911621,476.228943 
	C425.141174,473.293335 419.674713,468.952637 411.220154,473.557709 
	C414.271912,475.115356 416.112732,476.147644 418.028137,477.015259 
	C423.888733,479.670044 430.050507,481.801208 435.550018,485.056824 
	C438.659698,486.897766 440.699402,490.546051 443.416748,493.705109 
z"/>
<path fill="#312751" opacity="1.000000" stroke="none" 
	d="
M410.378632,664.589844 
	C402.618164,664.707581 394.941223,665.932983 387.906433,664.333740 
	C373.163605,660.982117 364.011017,648.698486 363.903961,634.520142 
	C363.792175,619.714172 372.512329,608.178467 387.362701,603.643127 
	C396.226013,600.936157 405.063477,601.253540 413.695648,604.583801 
	C427.142365,609.771606 434.659241,621.225037 434.234344,635.564453 
	C433.833130,649.104370 425.077820,659.862854 410.378632,664.589844 
M408.471802,638.436646 
	C408.739899,637.313538 409.151428,636.202942 409.250488,635.065125 
	C409.628998,630.717651 408.322723,626.471008 404.168274,625.248291 
	C400.753662,624.243347 396.301208,624.506653 393.017944,625.890503 
	C389.000488,627.583801 387.665771,632.296692 389.226257,636.169128 
	C390.439362,639.179626 393.250519,642.505066 396.156555,643.653992 
	C400.731934,645.462769 405.322968,643.893677 408.471802,638.436646 
z"/>
<path fill="#312650" opacity="1.000000" stroke="none" 
	d="
M583.359863,610.719238 
	C585.033752,616.595093 587.456848,622.115479 587.770691,627.753235 
	C588.426514,639.535706 587.969360,651.380127 587.969360,663.601196 
	C579.839294,663.601196 571.798096,663.601196 563.144043,663.601196 
	C563.144043,657.089417 563.158447,650.489380 563.139099,643.889465 
	C563.125916,639.395508 563.199219,634.895325 562.987305,630.409546 
	C562.790588,626.245789 560.626343,623.399780 556.296692,623.104919 
	C551.976746,622.810791 548.870422,624.856567 547.839600,629.211121 
	C547.348389,631.286133 547.260742,633.491028 547.246765,635.638794 
	C547.186523,644.925842 547.221008,654.213501 547.221008,663.750610 
	C538.938293,663.750610 531.007141,663.750610 522.802612,663.750610 
	C522.802612,643.996277 522.802612,624.252747 522.802612,603.999756 
	C529.688293,603.999756 536.465454,603.851868 543.224670,604.134399 
	C544.461365,604.186096 545.624878,605.989624 547.285706,607.369751 
	C554.111023,602.906677 562.524475,600.105835 571.403442,602.839661 
	C575.691406,604.159912 579.259705,607.817566 583.359863,610.719238 
z"/>
<path fill="#312650" opacity="1.000000" stroke="none" 
	d="
M492.052765,664.003601 
	C489.431580,664.003601 487.303955,664.003601 484.778931,664.003601 
	C484.778931,654.430542 484.788483,645.312561 484.770966,636.194580 
	C484.767456,634.365601 484.800964,632.519226 484.575500,630.711060 
	C483.926636,625.506775 481.429810,623.010071 477.098450,623.037109 
	C472.473846,623.065979 469.078156,626.223999 468.981964,631.361633 
	C468.782745,642.000488 468.921875,652.645752 468.921875,663.645142 
	C460.571167,663.645142 452.533997,663.645142 444.256592,663.645142 
	C444.256592,643.958191 444.256592,624.357666 444.256592,604.019653 
	C451.238190,604.019653 458.328064,603.884277 465.400604,604.173401 
	C466.401398,604.214233 467.317657,606.323364 468.442993,607.680115 
	C475.679138,602.735229 483.862366,600.726318 492.748962,602.544128 
	C502.910583,604.622559 507.950165,612.018860 508.553833,621.347168 
	C509.463318,635.401367 508.790894,649.557861 508.790894,664.003601 
	C503.498383,664.003601 498.022339,664.003601 492.052765,664.003601 
z"/>
<path fill="#322752" opacity="1.000000" stroke="none" 
	d="
M637.409790,602.289062 
	C656.327820,606.473816 666.588928,620.904053 663.305603,637.810303 
	C662.689697,640.981750 661.428650,641.797485 658.383850,641.755554 
	C646.744446,641.595398 635.101379,641.690796 623.369263,641.690796 
	C625.452393,647.951355 631.757751,650.456177 637.230957,646.810303 
	C640.190247,644.839111 642.536377,644.893494 645.486755,646.102478 
	C650.080505,647.984863 654.759644,649.658508 659.398499,651.431519 
	C659.533020,651.482971 659.620300,651.657898 660.105164,652.178406 
	C654.873962,660.064270 647.206848,663.864990 638.106689,665.605652 
	C621.188171,668.841797 603.790039,659.153320 599.041748,643.700073 
	C592.706970,623.083679 607.618713,602.652100 629.498657,602.015991 
	C631.988953,601.943604 634.486633,602.122620 637.409790,602.289062 
M629.534058,628.992432 
	C632.981934,628.992432 636.429871,628.992432 639.900024,628.992432 
	C639.363464,622.373291 636.317078,619.410522 630.649902,619.710205 
	C625.458740,619.984802 622.197388,623.473206 622.135376,628.992432 
	C624.277466,628.992432 626.418213,628.992432 629.534058,628.992432 
z"/>
<path fill="#322752" opacity="1.000000" stroke="none" 
	d="
M744.007568,596.701050 
	C744.011169,594.760742 744.011169,593.265137 744.011169,591.381226 
	C751.165283,591.381226 758.205750,591.381226 765.745483,591.381226 
	C765.745483,595.363464 765.745483,599.433167 765.745483,603.837891 
	C769.995972,603.837891 773.770569,603.837891 777.891479,603.837891 
	C777.891479,610.873108 777.891479,617.559692 777.891479,624.635254 
	C773.994080,624.635254 770.227600,624.635254 765.982178,624.635254 
	C765.982178,630.771851 765.719177,636.555908 766.070374,642.302551 
	C766.323730,646.447205 769.657532,647.550537 773.254333,647.621033 
	C774.543518,647.646362 775.842651,647.167847 777.575806,646.835022 
	C777.575806,652.090271 777.575806,657.138062 777.575806,662.340210 
	C760.683960,671.913940 741.065002,661.464050 741.019470,642.580994 
	C741.008606,638.087830 741.016357,633.594727 741.015686,629.101562 
	C741.015442,627.805359 741.015564,626.509155 741.015564,624.960938 
	C738.023132,624.778564 735.440491,624.621094 732.578979,624.446716 
	C732.578979,618.636902 732.578979,613.052002 732.578979,607.455872 
	C742.427917,605.012329 743.214233,604.303772 744.007568,596.701050 
z"/>
<path fill="#322752" opacity="1.000000" stroke="none" 
	d="
M674.805054,650.116089 
	C667.440125,635.527161 670.121460,619.641357 681.295349,610.249390 
	C693.872864,599.677429 713.946838,599.073425 727.519043,609.215759 
	C724.455566,614.196167 721.362244,619.225037 718.952881,623.141968 
	C713.155579,622.731750 708.193420,621.904907 703.319092,622.265320 
	C701.316162,622.413391 699.093079,624.817383 697.685547,626.723450 
	C694.512207,631.020386 695.104736,638.614685 698.481323,642.615051 
	C702.597839,647.492065 708.959167,647.939575 717.810547,643.605774 
	C721.283386,648.401428 724.836304,653.307556 728.380920,658.202332 
	C712.190613,671.470520 687.026489,667.686951 674.805054,650.116089 
z"/>
<path fill="#815AF1" opacity="1.000000" stroke="none" 
	d="
M204.060455,432.958435 
	C211.965607,439.447571 219.569366,445.741913 227.173111,452.036285 
	C226.865631,452.460236 226.558151,452.884216 226.250671,453.308167 
	C202.926407,453.275421 180.697510,447.961761 159.263519,438.978729 
	C143.335205,432.303131 127.499870,425.405518 111.564964,418.745941 
	C107.771111,417.160370 103.744926,416.130737 99.927864,414.385010 
	C137.189667,405.468475 171.810196,411.491760 204.060455,432.958435 
z"/>
<path fill="#332852" opacity="1.000000" stroke="none" 
	d="
M611.899658,460.008850 
	C611.899658,455.541290 611.899658,451.572266 611.899658,447.298615 
	C620.203186,447.298615 628.235107,447.298615 636.469055,447.298615 
	C636.469055,474.526825 636.469055,501.550293 636.469055,528.790894 
	C628.302307,528.790894 620.390259,528.790894 611.899719,528.790894 
	C611.899719,505.948151 611.899719,483.227783 611.899658,460.008850 
z"/>
<path fill="#332852" opacity="1.000000" stroke="none" 
	d="
M573.899658,484.000000 
	C573.899658,471.542938 573.899658,459.585907 573.899658,447.310913 
	C582.176880,447.310913 590.211060,447.310913 598.481567,447.310913 
	C598.481567,474.494781 598.481567,501.518280 598.481567,528.775024 
	C590.330017,528.775024 582.419495,528.775024 573.899719,528.775024 
	C573.899719,513.966003 573.899719,499.233002 573.899658,484.000000 
z"/>
<path fill="#332852" opacity="1.000000" stroke="none" 
	d="
M559.725098,488.000732 
	C559.725037,501.775909 559.725037,515.051208 559.725037,528.666260 
	C551.395203,528.666260 543.374634,528.666260 535.124939,528.666260 
	C535.124939,508.862732 535.124939,489.173584 535.124939,469.237854 
	C543.226196,469.237854 551.145630,469.237854 559.725159,469.237854 
	C559.725159,475.314819 559.725159,481.407837 559.725098,488.000732 
z"/>
<path fill="#322752" opacity="1.000000" stroke="none" 
	d="
M543.666504,464.799805 
	C536.212524,462.125549 533.125061,458.298645 533.557678,452.680023 
	C533.959534,447.459747 538.040222,443.305481 543.906677,442.144287 
	C550.368164,440.865295 557.324341,443.697296 559.857727,448.638367 
	C563.527222,455.794922 558.341919,464.041595 549.531982,464.940552 
	C547.732483,465.124146 545.893250,464.918915 543.666504,464.799805 
z"/>
<path fill="#FFFFFF" opacity="1.000000" stroke="none" 
	d="
M408.276337,638.792114 
	C405.322968,643.893677 400.731934,645.462769 396.156555,643.653992 
	C393.250519,642.505066 390.439362,639.179626 389.226257,636.169128 
	C387.665771,632.296692 389.000488,627.583801 393.017944,625.890503 
	C396.301208,624.506653 400.753662,624.243347 404.168274,625.248291 
	C408.322723,626.471008 409.628998,630.717651 409.250488,635.065125 
	C409.151428,636.202942 408.739899,637.313538 408.276337,638.792114 
z"/>
<path fill="#FFFFFF" opacity="1.000000" stroke="none" 
	d="
M629.046509,628.992432 
	C626.418213,628.992432 624.277466,628.992432 622.135376,628.992432 
	C622.197388,623.473206 625.458740,619.984802 630.649902,619.710205 
	C636.317078,619.410522 639.363464,622.373291 639.900024,628.992432 
	C636.429871,628.992432 632.981934,628.992432 629.046509,628.992432 
z"/>
</svg>